# xmcd
#
# Track frame offsets:
#	187
#	10287
#	24362
#	37170
#	48905
#	63212
#	76962
#	89635
#	105650
#	115450
#	129755
#	139422
#	152267
#	166217
#	175680
#	185495
#	198577
#	208030
#	216777
#	232560
#
# Disc length: 3259 seconds
#
# Revision: 1
# Processed by: cddbd v1.5PL3 Copyright (c) Steve Scherf et al.
# Submitted via: CDex 1.50Beta5
#
DISCID=050cb914
DTITLE=Various Artist - 日本のハワイアン
DYEAR=1900
DGENRE=Country
TTITLE0=エセル中田/小さな竹の橋
TTITLE1=南 かおる/ダヒル・サヨ
TTITLE2=大橋 節夫/真珠貝の歌
TTITLE3=ボス宮崎/珊瑚礁のかなたに
TTITLE4=大橋 節夫/タイニー・パブルス
TTITLE5=南 かおる/南国の夜
TTITLE6=南 かおる/マナクーラの月
TTITLE7=エセル中田/カイマナ・ヒラ
TTITLE8=ボス宮崎/タフ・ワフ・ワイ
TTITLE9=大橋 節夫/ブルー・レイ
TTITLE10=ボス宮崎/ブルー・ハワイ
TTITLE11=南 かおる/マニヒリ・メレ
TTITLE12=南 かおる/サンパギータ
TTITLE13=ボス宮崎/島の唄
TTITLE14=大橋 節夫/ハワイアン・パラダイス
TTITLE15=大橋 節夫/ナニ・ワイメア
TTITLE16=ボス宮崎/ラブリー・フラ・ハンズ
TTITLE17=南 かおる/恋の独木船
TTITLE18=ボス宮崎/ハワイの結婚の歌
TTITLE19=ボス宮崎/アロハ・オエ
EXTD=
EXTT0=
EXTT1=
EXTT2=
EXTT3=
EXTT4=
EXTT5=
EXTT6=
EXTT7=
EXTT8=
EXTT9=
EXTT10=
EXTT11=
EXTT12=
EXTT13=
EXTT14=
EXTT15=
EXTT16=
EXTT17=
EXTT18=
EXTT19=
PLAYORDER=
